{
 "cells": [
  {
   "cell_type": "code",
   "execution_count": 3,
   "metadata": {},
   "outputs": [],
   "source": [
    "import ffmpeg_split as fsp"
   ]
  },
  {
   "cell_type": "code",
   "execution_count": 4,
   "metadata": {},
   "outputs": [
    {
     "name": "stdout",
     "output_type": "stream",
     "text": [
      "About to run: ffmpeg -i /workspaces/video-splitter/1UGD2DOA001.mpg -vcodec copy -acodec copy -ss 0 -t 5 /workspaces/video-splitter/1UGD2DOA001-1-of-10.mpg\n",
      "About to run: ffmpeg -i /workspaces/video-splitter/1UGD2DOA001.mpg -vcodec copy -acodec copy -ss 5 -t 5 /workspaces/video-splitter/1UGD2DOA001-2-of-10.mpg\n",
      "About to run: ffmpeg -i /workspaces/video-splitter/1UGD2DOA001.mpg -vcodec copy -acodec copy -ss 10 -t 5 /workspaces/video-splitter/1UGD2DOA001-3-of-10.mpg\n"
     ]
    },
    {
     "name": "stderr",
     "output_type": "stream",
     "text": [
      "ffmpeg version 4.2.7-0ubuntu0.1 Copyright (c) 2000-2022 the FFmpeg developers\n",
      "  built with gcc 9 (Ubuntu 9.4.0-1ubuntu1~20.04.1)\n",
      "  configuration: --prefix=/usr --extra-version=0ubuntu0.1 --toolchain=hardened --libdir=/usr/lib/x86_64-linux-gnu --incdir=/usr/include/x86_64-linux-gnu --arch=amd64 --enable-gpl --disable-stripping --enable-avresample --disable-filter=resample --enable-avisynth --enable-gnutls --enable-ladspa --enable-libaom --enable-libass --enable-libbluray --enable-libbs2b --enable-libcaca --enable-libcdio --enable-libcodec2 --enable-libflite --enable-libfontconfig --enable-libfreetype --enable-libfribidi --enable-libgme --enable-libgsm --enable-libjack --enable-libmp3lame --enable-libmysofa --enable-libopenjpeg --enable-libopenmpt --enable-libopus --enable-libpulse --enable-librsvg --enable-librubberband --enable-libshine --enable-libsnappy --enable-libsoxr --enable-libspeex --enable-libssh --enable-libtheora --enable-libtwolame --enable-libvidstab --enable-libvorbis --enable-libvpx --enable-libwavpack --enable-libwebp --enable-libx265 --enable-libxml2 --enable-libxvid --enable-libzmq --enable-libzvbi --enable-lv2 --enable-omx --enable-openal --enable-opencl --enable-opengl --enable-sdl2 --enable-libdc1394 --enable-libdrm --enable-libiec61883 --enable-nvenc --enable-chromaprint --enable-frei0r --enable-libx264 --enable-shared\n",
      "  libavutil      56. 31.100 / 56. 31.100\n",
      "  libavcodec     58. 54.100 / 58. 54.100\n",
      "  libavformat    58. 29.100 / 58. 29.100\n",
      "  libavdevice    58.  8.100 / 58.  8.100\n",
      "  libavfilter     7. 57.100 /  7. 57.100\n",
      "  libavresample   4.  0.  0 /  4.  0.  0\n",
      "  libswscale      5.  5.100 /  5.  5.100\n",
      "  libswresample   3.  5.100 /  3.  5.100\n",
      "  libpostproc    55.  5.100 / 55.  5.100\n",
      "Input #0, mpegvideo, from '/workspaces/video-splitter/1UGD2DOA001.mpg':\n",
      "  Duration: N/A, bitrate: N/A\n",
      "    Stream #0:0: Video: mpeg1video, yuv420p(tv), 352x288 [SAR 1:1 DAR 11:9], 25 fps, 25 tbr, 1200k tbn, 25 tbc\n",
      "[mpeg @ 0x5d183fdb66c0] VBV buffer size not set, using default size of 230KB\n",
      "If you want the mpeg file to be compliant to some specification\n",
      "Like DVD, VCD or others, make sure you set the correct buffer size\n",
      "Output #0, mpeg, to '/workspaces/video-splitter/1UGD2DOA001-1-of-10.mpg':\n",
      "  Metadata:\n",
      "    encoder         : Lavf58.29.100\n",
      "    Stream #0:0: Video: mpeg1video, yuv420p(tv), 352x288 [SAR 1:1 DAR 11:9], q=2-31, 25 fps, 25 tbr, 90k tbn, 25 tbc\n",
      "Stream mapping:\n",
      "  Stream #0:0 -> #0:0 (copy)\n",
      "Press [q] to stop, [?] for help\n",
      "[mpeg @ 0x5d183fdb66c0] Timestamps are unset in a packet for stream 0. This is deprecated and will stop working in the future. Fix your code to set the timestamps properly\n",
      "frame=  125 fps=0.0 q=-1.0 Lsize=    3158kB time=00:00:04.96 bitrate=5215.8kbits/s speed= 162x    \n",
      "video:3145kB audio:0kB subtitle:0kB other streams:0kB global headers:0kB muxing overhead: 0.408522%\n",
      "ffmpeg version 4.2.7-0ubuntu0.1 Copyright (c) 2000-2022 the FFmpeg developers\n",
      "  built with gcc 9 (Ubuntu 9.4.0-1ubuntu1~20.04.1)\n",
      "  configuration: --prefix=/usr --extra-version=0ubuntu0.1 --toolchain=hardened --libdir=/usr/lib/x86_64-linux-gnu --incdir=/usr/include/x86_64-linux-gnu --arch=amd64 --enable-gpl --disable-stripping --enable-avresample --disable-filter=resample --enable-avisynth --enable-gnutls --enable-ladspa --enable-libaom --enable-libass --enable-libbluray --enable-libbs2b --enable-libcaca --enable-libcdio --enable-libcodec2 --enable-libflite --enable-libfontconfig --enable-libfreetype --enable-libfribidi --enable-libgme --enable-libgsm --enable-libjack --enable-libmp3lame --enable-libmysofa --enable-libopenjpeg --enable-libopenmpt --enable-libopus --enable-libpulse --enable-librsvg --enable-librubberband --enable-libshine --enable-libsnappy --enable-libsoxr --enable-libspeex --enable-libssh --enable-libtheora --enable-libtwolame --enable-libvidstab --enable-libvorbis --enable-libvpx --enable-libwavpack --enable-libwebp --enable-libx265 --enable-libxml2 --enable-libxvid --enable-libzmq --enable-libzvbi --enable-lv2 --enable-omx --enable-openal --enable-opencl --enable-opengl --enable-sdl2 --enable-libdc1394 --enable-libdrm --enable-libiec61883 --enable-nvenc --enable-chromaprint --enable-frei0r --enable-libx264 --enable-shared\n",
      "  libavutil      56. 31.100 / 56. 31.100\n",
      "  libavcodec     58. 54.100 / 58. 54.100\n",
      "  libavformat    58. 29.100 / 58. 29.100\n",
      "  libavdevice    58.  8.100 / 58.  8.100\n",
      "  libavfilter     7. 57.100 /  7. 57.100\n",
      "  libavresample   4.  0.  0 /  4.  0.  0\n",
      "  libswscale      5.  5.100 /  5.  5.100\n",
      "  libswresample   3.  5.100 /  3.  5.100\n",
      "  libpostproc    55.  5.100 / 55.  5.100\n",
      "Input #0, mpegvideo, from '/workspaces/video-splitter/1UGD2DOA001.mpg':\n",
      "  Duration: N/A, bitrate: N/A\n",
      "    Stream #0:0: Video: mpeg1video, yuv420p(tv), 352x288 [SAR 1:1 DAR 11:9], 25 fps, 25 tbr, 1200k tbn, 25 tbc\n",
      "[mpeg @ 0x5d184a0d26c0] VBV buffer size not set, using default size of 230KB\n",
      "If you want the mpeg file to be compliant to some specification\n",
      "Like DVD, VCD or others, make sure you set the correct buffer size\n",
      "Output #0, mpeg, to '/workspaces/video-splitter/1UGD2DOA001-2-of-10.mpg':\n",
      "  Metadata:\n",
      "    encoder         : Lavf58.29.100\n",
      "    Stream #0:0: Video: mpeg1video, yuv420p(tv), 352x288 [SAR 1:1 DAR 11:9], q=2-31, 25 fps, 25 tbr, 90k tbn, 25 tbc\n",
      "Stream mapping:\n",
      "  Stream #0:0 -> #0:0 (copy)\n",
      "Press [q] to stop, [?] for help\n",
      "[mpeg @ 0x5d184a0d26c0] Timestamps are unset in a packet for stream 0. This is deprecated and will stop working in the future. Fix your code to set the timestamps properly\n",
      "frame=  120 fps=0.0 q=-1.0 Lsize=    3268kB time=00:00:04.96 bitrate=5397.5kbits/s speed= 120x    \n",
      "video:3255kB audio:0kB subtitle:0kB other streams:0kB global headers:0kB muxing overhead: 0.395560%\n",
      "ffmpeg version 4.2.7-0ubuntu0.1 Copyright (c) 2000-2022 the FFmpeg developers\n",
      "  built with gcc 9 (Ubuntu 9.4.0-1ubuntu1~20.04.1)\n",
      "  configuration: --prefix=/usr --extra-version=0ubuntu0.1 --toolchain=hardened --libdir=/usr/lib/x86_64-linux-gnu --incdir=/usr/include/x86_64-linux-gnu --arch=amd64 --enable-gpl --disable-stripping --enable-avresample --disable-filter=resample --enable-avisynth --enable-gnutls --enable-ladspa --enable-libaom --enable-libass --enable-libbluray --enable-libbs2b --enable-libcaca --enable-libcdio --enable-libcodec2 --enable-libflite --enable-libfontconfig --enable-libfreetype --enable-libfribidi --enable-libgme --enable-libgsm --enable-libjack --enable-libmp3lame --enable-libmysofa --enable-libopenjpeg --enable-libopenmpt --enable-libopus --enable-libpulse --enable-librsvg --enable-librubberband --enable-libshine --enable-libsnappy --enable-libsoxr --enable-libspeex --enable-libssh --enable-libtheora --enable-libtwolame --enable-libvidstab --enable-libvorbis --enable-libvpx --enable-libwavpack --enable-libwebp --enable-libx265 --enable-libxml2 --enable-libxvid --enable-libzmq --enable-libzvbi --enable-lv2 --enable-omx --enable-openal --enable-opencl --enable-opengl --enable-sdl2 --enable-libdc1394 --enable-libdrm --enable-libiec61883 --enable-nvenc --enable-chromaprint --enable-frei0r --enable-libx264 --enable-shared\n",
      "  libavutil      56. 31.100 / 56. 31.100\n",
      "  libavcodec     58. 54.100 / 58. 54.100\n",
      "  libavformat    58. 29.100 / 58. 29.100\n",
      "  libavdevice    58.  8.100 / 58.  8.100\n",
      "  libavfilter     7. 57.100 /  7. 57.100\n",
      "  libavresample   4.  0.  0 /  4.  0.  0\n",
      "  libswscale      5.  5.100 /  5.  5.100\n",
      "  libswresample   3.  5.100 /  3.  5.100\n",
      "  libpostproc    55.  5.100 / 55.  5.100\n",
      "Input #0, mpegvideo, from '/workspaces/video-splitter/1UGD2DOA001.mpg':\n",
      "  Duration: N/A, bitrate: N/A\n",
      "    Stream #0:0: Video: mpeg1video, yuv420p(tv), 352x288 [SAR 1:1 DAR 11:9], 25 fps, 25 tbr, 1200k tbn, 25 tbc\n",
      "[mpeg @ 0x61e95baa76c0] VBV buffer size not set, using default size of 230KB\n",
      "If you want the mpeg file to be compliant to some specification\n",
      "Like DVD, VCD or others, make sure you set the correct buffer size\n",
      "Output #0, mpeg, to '/workspaces/video-splitter/1UGD2DOA001-3-of-10.mpg':\n",
      "  Metadata:\n",
      "    encoder         : Lavf58.29.100\n",
      "    Stream #0:0: Video: mpeg1video, yuv420p(tv), 352x288 [SAR 1:1 DAR 11:9], q=2-31, 25 fps, 25 tbr, 90k tbn, 25 tbc\n",
      "Stream mapping:\n",
      "  Stream #0:0 -> #0:0 (copy)\n",
      "Press [q] to stop, [?] for help\n",
      "[mpeg @ 0x61e95baa76c0] Timestamps are unset in a packet for stream 0. This is deprecated and will stop working in the future. Fix your code to set the timestamps properly\n",
      "frame=  125 fps=0.0 q=-1.0 Lsize=    3110kB time=00:00:04.96 bitrate=5136.5kbits/s speed=31.4x    \n",
      "video:3097kB audio:0kB subtitle:0kB other streams:0kB global headers:0kB muxing overhead: 0.435628%\n",
      "ffmpeg version 4.2.7-0ubuntu0.1 Copyright (c) 2000-2022 the FFmpeg developers\n",
      "  built with gcc 9 (Ubuntu 9.4.0-1ubuntu1~20.04.1)\n",
      "  configuration: --prefix=/usr --extra-version=0ubuntu0.1 --toolchain=hardened --libdir=/usr/lib/x86_64-linux-gnu --incdir=/usr/include/x86_64-linux-gnu --arch=amd64 --enable-gpl --disable-stripping --enable-avresample --disable-filter=resample --enable-avisynth --enable-gnutls --enable-ladspa --enable-libaom --enable-libass --enable-libbluray --enable-libbs2b --enable-libcaca --enable-libcdio --enable-libcodec2 --enable-libflite --enable-libfontconfig --enable-libfreetype --enable-libfribidi --enable-libgme --enable-libgsm --enable-libjack --enable-libmp3lame --enable-libmysofa --enable-libopenjpeg --enable-libopenmpt --enable-libopus --enable-libpulse --enable-librsvg --enable-librubberband --enable-libshine --enable-libsnappy --enable-libsoxr --enable-libspeex --enable-libssh --enable-libtheora --enable-libtwolame --enable-libvidstab --enable-libvorbis --enable-libvpx --enable-libwavpack --enable-libwebp --enable-libx265 --enable-libxml2 --enable-libxvid --enable-libzmq --enable-libzvbi --enable-lv2 --enable-omx --enable-openal --enable-opencl --enable-opengl --enable-sdl2 --enable-libdc1394 --enable-libdrm --enable-libiec61883 --enable-nvenc --enable-chromaprint --enable-frei0r --enable-libx264 --enable-shared\n",
      "  libavutil      56. 31.100 / 56. 31.100\n",
      "  libavcodec     58. 54.100 / 58. 54.100\n",
      "  libavformat    58. 29.100 / 58. 29.100\n",
      "  libavdevice    58.  8.100 / 58.  8.100\n",
      "  libavfilter     7. 57.100 /  7. 57.100\n",
      "  libavresample   4.  0.  0 /  4.  0.  0\n",
      "  libswscale      5.  5.100 /  5.  5.100\n",
      "  libswresample   3.  5.100 /  3.  5.100\n",
      "  libpostproc    55.  5.100 / 55.  5.100\n",
      "Input #0, mpegvideo, from '/workspaces/video-splitter/1UGD2DOA001.mpg':\n",
      "  Duration: N/A, bitrate: N/A\n",
      "    Stream #0:0: Video: mpeg1video, yuv420p(tv), 352x288 [SAR 1:1 DAR 11:9], 25 fps, 25 tbr, 1200k tbn, 25 tbc\n",
      "[mpeg @ 0x6312dbf9d6c0] VBV buffer size not set, using default size of 230KB\n",
      "If you want the mpeg file to be compliant to some specification\n",
      "Like DVD, VCD or others, make sure you set the correct buffer size\n",
      "Output #0, mpeg, to '/workspaces/video-splitter/1UGD2DOA001-4-of-10.mpg':\n",
      "  Metadata:\n",
      "    encoder         : Lavf58.29.100\n",
      "    Stream #0:0: Video: mpeg1video, yuv420p(tv), 352x288 [SAR 1:1 DAR 11:9], q=2-31, 25 fps, 25 tbr, 90k tbn, 25 tbc\n",
      "Stream mapping:\n",
      "  Stream #0:0 -> #0:0 (copy)\n",
      "Press [q] to stop, [?] for help\n",
      "[mpeg @ 0x6312dbf9d6c0] Timestamps are unset in a packet for stream 0. This is deprecated and will stop working in the future. Fix your code to set the timestamps properly\n",
      "frame=  118 fps=0.0 q=-1.0 Lsize=    2132kB time=00:00:04.96 bitrate=3521.2kbits/s speed=62.5x    \n",
      "video:2122kB audio:0kB subtitle:0kB other streams:0kB global headers:0kB muxing overhead: 0.492019%\n",
      "ffmpeg version 4.2.7-0ubuntu0.1 Copyright (c) 2000-2022 the FFmpeg developers\n",
      "  built with gcc 9 (Ubuntu 9.4.0-1ubuntu1~20.04.1)\n",
      "  configuration: --prefix=/usr --extra-version=0ubuntu0.1 --toolchain=hardened --libdir=/usr/lib/x86_64-linux-gnu --incdir=/usr/include/x86_64-linux-gnu --arch=amd64 --enable-gpl --disable-stripping --enable-avresample --disable-filter=resample --enable-avisynth --enable-gnutls --enable-ladspa --enable-libaom --enable-libass --enable-libbluray --enable-libbs2b --enable-libcaca --enable-libcdio --enable-libcodec2 --enable-libflite --enable-libfontconfig --enable-libfreetype --enable-libfribidi --enable-libgme --enable-libgsm --enable-libjack --enable-libmp3lame --enable-libmysofa --enable-libopenjpeg --enable-libopenmpt --enable-libopus --enable-libpulse --enable-librsvg --enable-librubberband --enable-libshine --enable-libsnappy --enable-libsoxr --enable-libspeex --enable-libssh --enable-libtheora --enable-libtwolame --enable-libvidstab --enable-libvorbis --enable-libvpx --enable-libwavpack --enable-libwebp --enable-libx265 --enable-libxml2 --enable-libxvid --enable-libzmq --enable-libzvbi --enable-lv2 --enable-omx --enable-openal --enable-opencl --enable-opengl --enable-sdl2 --enable-libdc1394 --enable-libdrm --enable-libiec61883 --enable-nvenc --enable-chromaprint --enable-frei0r --enable-libx264 --enable-shared\n",
      "  libavutil      56. 31.100 / 56. 31.100\n",
      "  libavcodec     58. 54.100 / 58. 54.100\n",
      "  libavformat    58. 29.100 / 58. 29.100\n",
      "  libavdevice    58.  8.100 / 58.  8.100\n",
      "  libavfilter     7. 57.100 /  7. 57.100\n",
      "  libavresample   4.  0.  0 /  4.  0.  0\n",
      "  libswscale      5.  5.100 /  5.  5.100\n",
      "  libswresample   3.  5.100 /  3.  5.100\n",
      "  libpostproc    55.  5.100 / 55.  5.100\n",
      "Input #0, mpegvideo, from '/workspaces/video-splitter/1UGD2DOA001.mpg':\n",
      "  Duration: N/A, bitrate: N/A\n",
      "    Stream #0:0: Video: mpeg1video, yuv420p(tv), 352x288 [SAR 1:1 DAR 11:9], 25 fps, 25 tbr, 1200k tbn, 25 tbc\n",
      "[mpeg @ 0x601802b476c0] VBV buffer size not set, using default size of 230KB\n",
      "If you want the mpeg file to be compliant to some specification\n",
      "Like DVD, VCD or others, make sure you set the correct buffer size\n",
      "Output #0, mpeg, to '/workspaces/video-splitter/1UGD2DOA001-5-of-10.mpg':\n",
      "  Metadata:\n",
      "    encoder         : Lavf58.29.100\n",
      "    Stream #0:0: Video: mpeg1video, yuv420p(tv), 352x288 [SAR 1:1 DAR 11:9], q=2-31, 25 fps, 25 tbr, 90k tbn, 25 tbc\n",
      "Stream mapping:\n",
      "  Stream #0:0 -> #0:0 (copy)\n",
      "Press [q] to stop, [?] for help\n"
     ]
    },
    {
     "name": "stdout",
     "output_type": "stream",
     "text": [
      "About to run: ffmpeg -i /workspaces/video-splitter/1UGD2DOA001.mpg -vcodec copy -acodec copy -ss 15 -t 5 /workspaces/video-splitter/1UGD2DOA001-4-of-10.mpg\n",
      "About to run: ffmpeg -i /workspaces/video-splitter/1UGD2DOA001.mpg -vcodec copy -acodec copy -ss 20 -t 5 /workspaces/video-splitter/1UGD2DOA001-5-of-10.mpg\n"
     ]
    },
    {
     "name": "stderr",
     "output_type": "stream",
     "text": [
      "[mpeg @ 0x601802b476c0] Timestamps are unset in a packet for stream 0. This is deprecated and will stop working in the future. Fix your code to set the timestamps properly\n",
      "frame=  123 fps=0.0 q=-1.0 Lsize=    2184kB time=00:00:04.96 bitrate=3607.1kbits/s speed=74.9x    \n",
      "video:2174kB audio:0kB subtitle:0kB other streams:0kB global headers:0kB muxing overhead: 0.439859%\n",
      "ffmpeg version 4.2.7-0ubuntu0.1 Copyright (c) 2000-2022 the FFmpeg developers\n",
      "  built with gcc 9 (Ubuntu 9.4.0-1ubuntu1~20.04.1)\n",
      "  configuration: --prefix=/usr --extra-version=0ubuntu0.1 --toolchain=hardened --libdir=/usr/lib/x86_64-linux-gnu --incdir=/usr/include/x86_64-linux-gnu --arch=amd64 --enable-gpl --disable-stripping --enable-avresample --disable-filter=resample --enable-avisynth --enable-gnutls --enable-ladspa --enable-libaom --enable-libass --enable-libbluray --enable-libbs2b --enable-libcaca --enable-libcdio --enable-libcodec2 --enable-libflite --enable-libfontconfig --enable-libfreetype --enable-libfribidi --enable-libgme --enable-libgsm --enable-libjack --enable-libmp3lame --enable-libmysofa --enable-libopenjpeg --enable-libopenmpt --enable-libopus --enable-libpulse --enable-librsvg --enable-librubberband --enable-libshine --enable-libsnappy --enable-libsoxr --enable-libspeex --enable-libssh --enable-libtheora --enable-libtwolame --enable-libvidstab --enable-libvorbis --enable-libvpx --enable-libwavpack --enable-libwebp --enable-libx265 --enable-libxml2 --enable-libxvid --enable-libzmq --enable-libzvbi --enable-lv2 --enable-omx --enable-openal --enable-opencl --enable-opengl --enable-sdl2 --enable-libdc1394 --enable-libdrm --enable-libiec61883 --enable-nvenc --enable-chromaprint --enable-frei0r --enable-libx264 --enable-shared\n",
      "  libavutil      56. 31.100 / 56. 31.100\n",
      "  libavcodec     58. 54.100 / 58. 54.100\n",
      "  libavformat    58. 29.100 / 58. 29.100\n",
      "  libavdevice    58.  8.100 / 58.  8.100\n",
      "  libavfilter     7. 57.100 /  7. 57.100\n",
      "  libavresample   4.  0.  0 /  4.  0.  0\n",
      "  libswscale      5.  5.100 /  5.  5.100\n",
      "  libswresample   3.  5.100 /  3.  5.100\n",
      "  libpostproc    55.  5.100 / 55.  5.100\n",
      "Input #0, mpegvideo, from '/workspaces/video-splitter/1UGD2DOA001.mpg':\n",
      "  Duration: N/A, bitrate: N/A\n",
      "    Stream #0:0: Video: mpeg1video, yuv420p(tv), 352x288 [SAR 1:1 DAR 11:9], 25 fps, 25 tbr, 1200k tbn, 25 tbc\n",
      "[mpeg @ 0x5cad37d346c0] VBV buffer size not set, using default size of 230KB\n",
      "If you want the mpeg file to be compliant to some specification\n",
      "Like DVD, VCD or others, make sure you set the correct buffer size\n",
      "Output #0, mpeg, to '/workspaces/video-splitter/1UGD2DOA001-6-of-10.mpg':\n",
      "  Metadata:\n",
      "    encoder         : Lavf58.29.100\n",
      "    Stream #0:0: Video: mpeg1video, yuv420p(tv), 352x288 [SAR 1:1 DAR 11:9], q=2-31, 25 fps, 25 tbr, 90k tbn, 25 tbc\n",
      "Stream mapping:\n",
      "  Stream #0:0 -> #0:0 (copy)\n",
      "Press [q] to stop, [?] for help\n",
      "[mpeg @ 0x5cad37d346c0] Timestamps are unset in a packet for stream 0. This is deprecated and will stop working in the future. Fix your code to set the timestamps properly\n",
      "frame=  116 fps=0.0 q=-1.0 Lsize=    2018kB time=00:00:04.96 bitrate=3332.9kbits/s speed=65.3x    \n",
      "video:2009kB audio:0kB subtitle:0kB other streams:0kB global headers:0kB muxing overhead: 0.451353%\n"
     ]
    },
    {
     "name": "stdout",
     "output_type": "stream",
     "text": [
      "About to run: ffmpeg -i /workspaces/video-splitter/1UGD2DOA001.mpg -vcodec copy -acodec copy -ss 25 -t 5 /workspaces/video-splitter/1UGD2DOA001-6-of-10.mpg\n",
      "About to run: ffmpeg -i /workspaces/video-splitter/1UGD2DOA001.mpg -vcodec copy -acodec copy -ss 30 -t 5 /workspaces/video-splitter/1UGD2DOA001-7-of-10.mpg\n"
     ]
    },
    {
     "name": "stderr",
     "output_type": "stream",
     "text": [
      "ffmpeg version 4.2.7-0ubuntu0.1 Copyright (c) 2000-2022 the FFmpeg developers\n",
      "  built with gcc 9 (Ubuntu 9.4.0-1ubuntu1~20.04.1)\n",
      "  configuration: --prefix=/usr --extra-version=0ubuntu0.1 --toolchain=hardened --libdir=/usr/lib/x86_64-linux-gnu --incdir=/usr/include/x86_64-linux-gnu --arch=amd64 --enable-gpl --disable-stripping --enable-avresample --disable-filter=resample --enable-avisynth --enable-gnutls --enable-ladspa --enable-libaom --enable-libass --enable-libbluray --enable-libbs2b --enable-libcaca --enable-libcdio --enable-libcodec2 --enable-libflite --enable-libfontconfig --enable-libfreetype --enable-libfribidi --enable-libgme --enable-libgsm --enable-libjack --enable-libmp3lame --enable-libmysofa --enable-libopenjpeg --enable-libopenmpt --enable-libopus --enable-libpulse --enable-librsvg --enable-librubberband --enable-libshine --enable-libsnappy --enable-libsoxr --enable-libspeex --enable-libssh --enable-libtheora --enable-libtwolame --enable-libvidstab --enable-libvorbis --enable-libvpx --enable-libwavpack --enable-libwebp --enable-libx265 --enable-libxml2 --enable-libxvid --enable-libzmq --enable-libzvbi --enable-lv2 --enable-omx --enable-openal --enable-opencl --enable-opengl --enable-sdl2 --enable-libdc1394 --enable-libdrm --enable-libiec61883 --enable-nvenc --enable-chromaprint --enable-frei0r --enable-libx264 --enable-shared\n",
      "  libavutil      56. 31.100 / 56. 31.100\n",
      "  libavcodec     58. 54.100 / 58. 54.100\n",
      "  libavformat    58. 29.100 / 58. 29.100\n",
      "  libavdevice    58.  8.100 / 58.  8.100\n",
      "  libavfilter     7. 57.100 /  7. 57.100\n",
      "  libavresample   4.  0.  0 /  4.  0.  0\n",
      "  libswscale      5.  5.100 /  5.  5.100\n",
      "  libswresample   3.  5.100 /  3.  5.100\n",
      "  libpostproc    55.  5.100 / 55.  5.100\n",
      "Input #0, mpegvideo, from '/workspaces/video-splitter/1UGD2DOA001.mpg':\n",
      "  Duration: N/A, bitrate: N/A\n",
      "    Stream #0:0: Video: mpeg1video, yuv420p(tv), 352x288 [SAR 1:1 DAR 11:9], 25 fps, 25 tbr, 1200k tbn, 25 tbc\n",
      "[mpeg @ 0x5bd8f41ec6c0] VBV buffer size not set, using default size of 230KB\n",
      "If you want the mpeg file to be compliant to some specification\n",
      "Like DVD, VCD or others, make sure you set the correct buffer size\n",
      "Output #0, mpeg, to '/workspaces/video-splitter/1UGD2DOA001-7-of-10.mpg':\n",
      "  Metadata:\n",
      "    encoder         : Lavf58.29.100\n",
      "    Stream #0:0: Video: mpeg1video, yuv420p(tv), 352x288 [SAR 1:1 DAR 11:9], q=2-31, 25 fps, 25 tbr, 90k tbn, 25 tbc\n",
      "Stream mapping:\n",
      "  Stream #0:0 -> #0:0 (copy)\n",
      "Press [q] to stop, [?] for help\n",
      "[mpeg @ 0x5bd8f41ec6c0] Timestamps are unset in a packet for stream 0. This is deprecated and will stop working in the future. Fix your code to set the timestamps properly\n",
      "frame=  123 fps=0.0 q=-1.0 Lsize=    2234kB time=00:00:04.96 bitrate=3689.7kbits/s speed=86.3x    \n",
      "video:2223kB audio:0kB subtitle:0kB other streams:0kB global headers:0kB muxing overhead: 0.478098%\n",
      "ffmpeg version 4.2.7-0ubuntu0.1 Copyright (c) 2000-2022 the FFmpeg developers\n",
      "  built with gcc 9 (Ubuntu 9.4.0-1ubuntu1~20.04.1)\n",
      "  configuration: --prefix=/usr --extra-version=0ubuntu0.1 --toolchain=hardened --libdir=/usr/lib/x86_64-linux-gnu --incdir=/usr/include/x86_64-linux-gnu --arch=amd64 --enable-gpl --disable-stripping --enable-avresample --disable-filter=resample --enable-avisynth --enable-gnutls --enable-ladspa --enable-libaom --enable-libass --enable-libbluray --enable-libbs2b --enable-libcaca --enable-libcdio --enable-libcodec2 --enable-libflite --enable-libfontconfig --enable-libfreetype --enable-libfribidi --enable-libgme --enable-libgsm --enable-libjack --enable-libmp3lame --enable-libmysofa --enable-libopenjpeg --enable-libopenmpt --enable-libopus --enable-libpulse --enable-librsvg --enable-librubberband --enable-libshine --enable-libsnappy --enable-libsoxr --enable-libspeex --enable-libssh --enable-libtheora --enable-libtwolame --enable-libvidstab --enable-libvorbis --enable-libvpx --enable-libwavpack --enable-libwebp --enable-libx265 --enable-libxml2 --enable-libxvid --enable-libzmq --enable-libzvbi --enable-lv2 --enable-omx --enable-openal --enable-opencl --enable-opengl --enable-sdl2 --enable-libdc1394 --enable-libdrm --enable-libiec61883 --enable-nvenc --enable-chromaprint --enable-frei0r --enable-libx264 --enable-shared\n",
      "  libavutil      56. 31.100 / 56. 31.100\n",
      "  libavcodec     58. 54.100 / 58. 54.100\n",
      "  libavformat    58. 29.100 / 58. 29.100\n",
      "  libavdevice    58.  8.100 / 58.  8.100\n",
      "  libavfilter     7. 57.100 /  7. 57.100\n",
      "  libavresample   4.  0.  0 /  4.  0.  0\n",
      "  libswscale      5.  5.100 /  5.  5.100\n",
      "  libswresample   3.  5.100 /  3.  5.100\n",
      "  libpostproc    55.  5.100 / 55.  5.100\n",
      "Input #0, mpegvideo, from '/workspaces/video-splitter/1UGD2DOA001.mpg':\n",
      "  Duration: N/A, bitrate: N/A\n",
      "    Stream #0:0: Video: mpeg1video, yuv420p(tv), 352x288 [SAR 1:1 DAR 11:9], 25 fps, 25 tbr, 1200k tbn, 25 tbc\n",
      "[mpeg @ 0x5af6897b56c0] VBV buffer size not set, using default size of 230KB\n",
      "If you want the mpeg file to be compliant to some specification\n",
      "Like DVD, VCD or others, make sure you set the correct buffer size\n",
      "Output #0, mpeg, to '/workspaces/video-splitter/1UGD2DOA001-8-of-10.mpg':\n",
      "  Metadata:\n",
      "    encoder         : Lavf58.29.100\n",
      "    Stream #0:0: Video: mpeg1video, yuv420p(tv), 352x288 [SAR 1:1 DAR 11:9], q=2-31, 25 fps, 25 tbr, 90k tbn, 25 tbc\n",
      "Stream mapping:\n",
      "  Stream #0:0 -> #0:0 (copy)\n",
      "Press [q] to stop, [?] for help\n",
      "[mpeg @ 0x5af6897b56c0] Timestamps are unset in a packet for stream 0. This is deprecated and will stop working in the future. Fix your code to set the timestamps properly\n",
      "frame=  116 fps=0.0 q=-1.0 Lsize=    1740kB time=00:00:04.96 bitrate=2873.8kbits/s speed=88.7x    \n",
      "video:1731kB audio:0kB subtitle:0kB other streams:0kB global headers:0kB muxing overhead: 0.535471%\n"
     ]
    },
    {
     "name": "stdout",
     "output_type": "stream",
     "text": [
      "About to run: ffmpeg -i /workspaces/video-splitter/1UGD2DOA001.mpg -vcodec copy -acodec copy -ss 35 -t 5 /workspaces/video-splitter/1UGD2DOA001-8-of-10.mpg\n",
      "About to run: ffmpeg -i /workspaces/video-splitter/1UGD2DOA001.mpg -vcodec copy -acodec copy -ss 40 -t 5 /workspaces/video-splitter/1UGD2DOA001-9-of-10.mpg\n"
     ]
    },
    {
     "name": "stderr",
     "output_type": "stream",
     "text": [
      "ffmpeg version 4.2.7-0ubuntu0.1 Copyright (c) 2000-2022 the FFmpeg developers\n",
      "  built with gcc 9 (Ubuntu 9.4.0-1ubuntu1~20.04.1)\n",
      "  configuration: --prefix=/usr --extra-version=0ubuntu0.1 --toolchain=hardened --libdir=/usr/lib/x86_64-linux-gnu --incdir=/usr/include/x86_64-linux-gnu --arch=amd64 --enable-gpl --disable-stripping --enable-avresample --disable-filter=resample --enable-avisynth --enable-gnutls --enable-ladspa --enable-libaom --enable-libass --enable-libbluray --enable-libbs2b --enable-libcaca --enable-libcdio --enable-libcodec2 --enable-libflite --enable-libfontconfig --enable-libfreetype --enable-libfribidi --enable-libgme --enable-libgsm --enable-libjack --enable-libmp3lame --enable-libmysofa --enable-libopenjpeg --enable-libopenmpt --enable-libopus --enable-libpulse --enable-librsvg --enable-librubberband --enable-libshine --enable-libsnappy --enable-libsoxr --enable-libspeex --enable-libssh --enable-libtheora --enable-libtwolame --enable-libvidstab --enable-libvorbis --enable-libvpx --enable-libwavpack --enable-libwebp --enable-libx265 --enable-libxml2 --enable-libxvid --enable-libzmq --enable-libzvbi --enable-lv2 --enable-omx --enable-openal --enable-opencl --enable-opengl --enable-sdl2 --enable-libdc1394 --enable-libdrm --enable-libiec61883 --enable-nvenc --enable-chromaprint --enable-frei0r --enable-libx264 --enable-shared\n",
      "  libavutil      56. 31.100 / 56. 31.100\n",
      "  libavcodec     58. 54.100 / 58. 54.100\n",
      "  libavformat    58. 29.100 / 58. 29.100\n",
      "  libavdevice    58.  8.100 / 58.  8.100\n",
      "  libavfilter     7. 57.100 /  7. 57.100\n",
      "  libavresample   4.  0.  0 /  4.  0.  0\n",
      "  libswscale      5.  5.100 /  5.  5.100\n",
      "  libswresample   3.  5.100 /  3.  5.100\n",
      "  libpostproc    55.  5.100 / 55.  5.100\n",
      "Input #0, mpegvideo, from '/workspaces/video-splitter/1UGD2DOA001.mpg':\n",
      "  Duration: N/A, bitrate: N/A\n",
      "    Stream #0:0: Video: mpeg1video, yuv420p(tv), 352x288 [SAR 1:1 DAR 11:9], 25 fps, 25 tbr, 1200k tbn, 25 tbc\n",
      "[mpeg @ 0x640330a566c0] VBV buffer size not set, using default size of 230KB\n",
      "If you want the mpeg file to be compliant to some specification\n",
      "Like DVD, VCD or others, make sure you set the correct buffer size\n",
      "Output #0, mpeg, to '/workspaces/video-splitter/1UGD2DOA001-9-of-10.mpg':\n",
      "  Metadata:\n",
      "    encoder         : Lavf58.29.100\n",
      "    Stream #0:0: Video: mpeg1video, yuv420p(tv), 352x288 [SAR 1:1 DAR 11:9], q=2-31, 25 fps, 25 tbr, 90k tbn, 25 tbc\n",
      "Stream mapping:\n",
      "  Stream #0:0 -> #0:0 (copy)\n",
      "Press [q] to stop, [?] for help\n",
      "[mpeg @ 0x640330a566c0] Timestamps are unset in a packet for stream 0. This is deprecated and will stop working in the future. Fix your code to set the timestamps properly\n",
      "frame=  121 fps=0.0 q=-1.0 Lsize=    2680kB time=00:00:04.96 bitrate=4426.3kbits/s speed=57.5x    \n",
      "video:2668kB audio:0kB subtitle:0kB other streams:0kB global headers:0kB muxing overhead: 0.467721%\n",
      "ffmpeg version 4.2.7-0ubuntu0.1 Copyright (c) 2000-2022 the FFmpeg developers\n",
      "  built with gcc 9 (Ubuntu 9.4.0-1ubuntu1~20.04.1)\n",
      "  configuration: --prefix=/usr --extra-version=0ubuntu0.1 --toolchain=hardened --libdir=/usr/lib/x86_64-linux-gnu --incdir=/usr/include/x86_64-linux-gnu --arch=amd64 --enable-gpl --disable-stripping --enable-avresample --disable-filter=resample --enable-avisynth --enable-gnutls --enable-ladspa --enable-libaom --enable-libass --enable-libbluray --enable-libbs2b --enable-libcaca --enable-libcdio --enable-libcodec2 --enable-libflite --enable-libfontconfig --enable-libfreetype --enable-libfribidi --enable-libgme --enable-libgsm --enable-libjack --enable-libmp3lame --enable-libmysofa --enable-libopenjpeg --enable-libopenmpt --enable-libopus --enable-libpulse --enable-librsvg --enable-librubberband --enable-libshine --enable-libsnappy --enable-libsoxr --enable-libspeex --enable-libssh --enable-libtheora --enable-libtwolame --enable-libvidstab --enable-libvorbis --enable-libvpx --enable-libwavpack --enable-libwebp --enable-libx265 --enable-libxml2 --enable-libxvid --enable-libzmq --enable-libzvbi --enable-lv2 --enable-omx --enable-openal --enable-opencl --enable-opengl --enable-sdl2 --enable-libdc1394 --enable-libdrm --enable-libiec61883 --enable-nvenc --enable-chromaprint --enable-frei0r --enable-libx264 --enable-shared\n",
      "  libavutil      56. 31.100 / 56. 31.100\n",
      "  libavcodec     58. 54.100 / 58. 54.100\n",
      "  libavformat    58. 29.100 / 58. 29.100\n",
      "  libavdevice    58.  8.100 / 58.  8.100\n",
      "  libavfilter     7. 57.100 /  7. 57.100\n",
      "  libavresample   4.  0.  0 /  4.  0.  0\n",
      "  libswscale      5.  5.100 /  5.  5.100\n",
      "  libswresample   3.  5.100 /  3.  5.100\n",
      "  libpostproc    55.  5.100 / 55.  5.100\n",
      "Input #0, mpegvideo, from '/workspaces/video-splitter/1UGD2DOA001.mpg':\n",
      "  Duration: N/A, bitrate: N/A\n",
      "    Stream #0:0: Video: mpeg1video, yuv420p(tv), 352x288 [SAR 1:1 DAR 11:9], 25 fps, 25 tbr, 1200k tbn, 25 tbc\n",
      "[mpeg @ 0x64cb5f1506c0] VBV buffer size not set, using default size of 230KB\n",
      "If you want the mpeg file to be compliant to some specification\n",
      "Like DVD, VCD or others, make sure you set the correct buffer size\n",
      "Output #0, mpeg, to '/workspaces/video-splitter/1UGD2DOA001-10-of-10.mpg':\n",
      "  Metadata:\n",
      "    encoder         : Lavf58.29.100\n",
      "    Stream #0:0: Video: mpeg1video, yuv420p(tv), 352x288 [SAR 1:1 DAR 11:9], q=2-31, 25 fps, 25 tbr, 90k tbn, 25 tbc\n",
      "Stream mapping:\n",
      "  Stream #0:0 -> #0:0 (copy)\n",
      "Press [q] to stop, [?] for help\n",
      "[mpeg @ 0x64cb5f1506c0] Timestamps are unset in a packet for stream 0. This is deprecated and will stop working in the future. Fix your code to set the timestamps properly\n"
     ]
    },
    {
     "name": "stdout",
     "output_type": "stream",
     "text": [
      "About to run: ffmpeg -i /workspaces/video-splitter/1UGD2DOA001.mpg -vcodec copy -acodec copy -ss 45 -t 5 /workspaces/video-splitter/1UGD2DOA001-10-of-10.mpg\n"
     ]
    },
    {
     "name": "stderr",
     "output_type": "stream",
     "text": [
      "frame=   66 fps=0.0 q=-1.0 Lsize=    1688kB time=00:00:03.04 bitrate=4548.7kbits/s speed=38.8x    \n",
      "video:1680kB audio:0kB subtitle:0kB other streams:0kB global headers:0kB muxing overhead: 0.461650%\n"
     ]
    }
   ],
   "source": [
    "fsp.split_by_seconds(filename='/workspaces/video-splitter/1UGD2DOA001.mpg', video_length=48, split_length=5)"
   ]
  }
 ],
 "metadata": {
  "kernelspec": {
   "display_name": "Python 3",
   "language": "python",
   "name": "python3"
  },
  "language_info": {
   "codemirror_mode": {
    "name": "ipython",
    "version": 3
   },
   "file_extension": ".py",
   "mimetype": "text/x-python",
   "name": "python",
   "nbconvert_exporter": "python",
   "pygments_lexer": "ipython3",
   "version": "3.10.13"
  }
 },
 "nbformat": 4,
 "nbformat_minor": 2
}
